<?xml version="1.0" encoding="utf-8"?>

<svg version="1.1" id="layer" xmlns="http://www.w3.org/2000/svg" xmlns:xlink="http://www.w3.org/1999/xlink" x="0px" y="0px"
	 viewBox="0 0 40 40" style="enable-background:new 0 0 40 40;" xml:space="preserve">
<style type="text/css">
	.st0{ fill: transparent; }
	.st1{ fill: #000000; }
</style>
<g>
	<ellipse class="st0" cx="20" cy="19.9" rx="17" ry="17.9"/>
	<g>
		<path class="st1" d="M15.6,6.3L10.5,30c-2.6-2.6-4.1-6.4-4.1-10.2C6.4,13.6,10.2,8.2,15.6,6.3 M20,2C10.6,2,3,10,3,19.9
				C3,27,7,33,12.7,36L20,2L20,2z"/>
		<path class="st1" d="M24.4,6.3c5.4,1.9,9.2,7.2,9.2,13.5c0,3.8-1.5,7.6-4.1,10.2L24.4,6.3 M20,2l7.3,34C33,33,37,27,37,19.9
				C37,10,29.4,2,20,2L20,2z"/>
	</g>
</g>
</svg>