<?xml version="1.0" encoding="utf-8"?>

<svg
	version="1.1"
	xmlns="http://www.w3.org/2000/svg"
	xmlns:xlink="http://www.w3.org/1999/xlink"
	x="0px"
	y="0px"
	viewBox="0 0 40 40"
	style="enable-background:new 0 0 40 40;"
	xml:space="preserve"
>
	<style type="text/css">
		.st0{fill:#FFFFFF;}
		.st1{fill:none;}
	</style>
	<g>
		<path class="st0" d="M3,1h34c1.1,0,2,0.9,2,2v34c0,1.1-0.9,2-2,2H3c-1.1,0-2-0.9-2-2V3C1,1.9,1.9,1,3,1z"/>
		<path class="st1" d="M10.5,31l5.1-23.7c-5.4,1.9-9.2,7.3-9.2,13.5C6.4,24.6,7.9,28.4,10.5,31z"/>
		<path class="st1" d="M24.4,7.3L29.5,31c2.6-2.6,4.1-6.4,4.1-10.2C33.6,14.5,29.8,9.2,24.4,7.3z"/>
		<path d="M3,20.9C3,28,7,34,12.7,37L20,3C10.6,3,3,11,3,20.9z M15.6,7.3L10.5,31c-2.6-2.6-4.1-6.4-4.1-10.2C6.4,14.6,10.2,9.2,15.6,7.3z"/>
		<path d="M20,3l7.3,34C33,34,37,28,37,20.9C37,11,29.4,3,20,3z M29.5,31L24.4,7.3c5.4,1.9,9.2,7.2,9.2,13.5C33.6,24.6,32.1,28.4,29.5,31z"/>
	</g>
</svg>
